<svg width="24" height="24" viewBox="0 0 24 24" fill="none" xmlns="http://www.w3.org/2000/svg">
<path d="M4.66406 12.5391V11.3203H7.69531C8.28385 11.3203 8.75781 11.2266 9.11719 11.0391C9.48177 10.8464 9.7474 10.5833 9.91406 10.25C10.0859 9.91667 10.1719 9.53646 10.1719 9.10938C10.1719 8.71875 10.0859 8.35156 9.91406 8.00781C9.7474 7.66406 9.48177 7.38542 9.11719 7.17188C8.75781 6.95833 8.28385 6.85156 7.69531 6.85156H5.00781V17H3.49219V5.625H7.69531C8.55469 5.625 9.28125 5.77344 9.875 6.07031C10.4688 6.36719 10.9193 6.77604 11.2266 7.29688C11.5339 7.81771 11.6875 8.41667 11.6875 9.09375C11.6875 9.82292 11.5339 10.4453 11.2266 10.9609C10.9193 11.4766 10.4688 11.8698 9.875 12.1406C9.28125 12.4062 8.55469 12.5391 7.69531 12.5391H4.66406ZM17.8125 17H16.3125V5.625H17.8125V17ZM21.4609 6.85156H12.6719V5.625H21.4609V6.85156Z" fill="#F5F6F6"/>
</svg>
